<?xml version="1.0" encoding="utf-8"?>
<!DOCTYPE svg PUBLIC "-//W3C//DTD SVG 1.1//EN" "http://www.w3.org/Graphics/SVG/1.1/DTD/svg11.dtd">
<svg version="1.1" xmlns="http://www.w3.org/2000/svg" xmlns:xlink="http://www.w3.org/1999/xlink" x="0px" y="0px"
     viewBox="0 0 490 490" xml:space="preserve">
<path d="M420.914,0H69.086C30.999,0,0,30.991,0,69.086v351.829C0,459.001,30.999,490,69.086,490h351.829
    C459.001,490,490,459.001,490,420.914V69.086C490,30.991,459.001,0,420.914,0z M116.519,150.546l21.653-21.653l28.277,28.28
    l28.277-28.28l21.653,21.653l-28.278,28.281l28.278,28.281l-21.653,21.653l-28.277-28.28l-28.277,28.28l-21.653-21.653
    l28.278-28.281L116.519,150.546z M136.735,386.273c0-60.977,49.431-110.409,110.409-110.409
    c60.977,0,110.409,49.432,110.409,110.409H136.735z M373.481,207.107l-21.653,21.653l-28.277-28.28l-28.277,28.28l-21.653-21.653
    l28.278-28.281l-28.278-28.281l21.653-21.653l28.277,28.28l28.277-28.28l21.653,21.653l-28.278,28.281L373.481,207.107z"/>
</svg>
