<?xml version="1.0" encoding="utf-8"?>
<!DOCTYPE svg PUBLIC "-//W3C//DTD SVG 1.1//EN" "http://www.w3.org/Graphics/SVG/1.1/DTD/svg11.dtd">
<svg version="1.1" xmlns="http://www.w3.org/2000/svg" xmlns:xlink="http://www.w3.org/1999/xlink" x="0px" y="0px"
     viewBox="0 0 537.488 537.488" style="enable-background:new 0 0 537.488 537.488;"
     xml:space="preserve">
<g>
    <path d="M464.391,351.365h-33.736v-161.11c0-79.101-57.222-144.967-132.804-158.584c0.152-0.842,0.152-1.683,0.152-2.601
        c0-15.989-13.005-29.07-29.146-29.07c-16.142,0-29.146,13.005-29.146,29.07c0,0.841,0,1.683,0.153,2.601
        c-75.505,13.617-132.88,79.483-132.88,158.584v161.11H73.246c-5.967,0-10.786,4.818-10.786,10.785v57.375
        c0,5.967,4.819,10.787,10.786,10.787h390.991c5.968,0,10.787-4.82,10.787-10.787V362.15
        C475.177,356.184,470.281,351.365,464.391,351.365z"/>
    <path d="M267.021,537.488c34.654,0,62.73-31.67,62.73-70.914h-125.46C204.291,505.818,232.366,537.488,267.021,537.488z"/>
</g>
</svg>
