<?xml version="1.0" encoding="utf-8"?>
<!DOCTYPE svg PUBLIC "-//W3C//DTD SVG 1.1//EN" "http://www.w3.org/Graphics/SVG/1.1/DTD/svg11.dtd">
<svg version="1.1" xmlns="http://www.w3.org/2000/svg" xmlns:xlink="http://www.w3.org/1999/xlink" x="0px" y="0px"
     viewBox="0 0 490 490" xml:space="preserve">
<path d="M69.086,490h351.829C459.001,490,490,459.001,490,420.914V69.086C490,30.999,459.001,0,420.914,0H69.086
    C30.999,0,0,30.999,0,69.086v351.829C0,459.001,30.999,490,69.086,490z M282.799,188.231l122.982,74.818
    c-12.046,23.02-36.159,38.73-63.941,38.73c-39.831,0-72.12-32.29-72.12-72.119C269.72,214.241,274.559,199.953,282.799,188.231z
     M207.201,188.231c8.24,11.723,13.079,26.011,13.079,41.429c0,39.83-32.29,72.119-72.12,72.119c-27.782,0-51.895-15.71-63.941-38.73
    L207.201,188.231z"/>
</svg>
