<?xml version="1.0" encoding="iso-8859-1"?>
<!DOCTYPE svg PUBLIC "-//W3C//DTD SVG 1.1//EN" "http://www.w3.org/Graphics/SVG/1.1/DTD/svg11.dtd">
<svg version="1.1" id="Capa_1" xmlns="http://www.w3.org/2000/svg" xmlns:xlink="http://www.w3.org/1999/xlink" x="0px" y="0px"
     viewBox="0 0 58.45 58.45" xml:space="preserve">
<g>
    <path d="M58.157,56.743l-5.614-5.614c0.304-0.304,0.38-0.769,0.188-1.154l-2.539-5.078c1.457-1.935,1.325-4.694-0.436-6.455
        l-4.699-4.699l0,0L20.016,8.702l2.121-2.121c0.391-0.391,0.391-1.023,0-1.414s-1.023-0.391-1.414,0l-2.121,2.121l-2.829,2.829
        L9.485,3.828l2.121-2.121c0.391-0.391,0.391-1.023,0-1.414s-1.023-0.391-1.414,0l-9.899,9.899c-0.391,0.391-0.391,1.023,0,1.414
        C0.488,11.802,0.744,11.899,1,11.899s0.512-0.098,0.707-0.293l2.121-2.121l6.288,6.288l-2.829,2.829l-2.121,2.121
        c-0.391,0.391-0.391,1.023,0,1.414c0.195,0.195,0.451,0.293,0.707,0.293s0.512-0.098,0.707-0.293l2.121-2.121l29.74,29.739
        c0.963,0.963,2.229,1.445,3.495,1.445c1.047,0,2.084-0.349,2.96-1.009l5.078,2.539c0.142,0.071,0.295,0.105,0.447,0.105
        c0.26,0,0.516-0.101,0.708-0.293l5.614,5.614c0.195,0.195,0.451,0.293,0.707,0.293s0.512-0.098,0.707-0.293
        C58.547,57.766,58.547,57.133,58.157,56.743z M24.328,32.814l2.829-2.828c0.391-0.39,0.391-1.023,0-1.414s-1.023-0.391-1.414,0
        L22.914,31.4L21.5,29.985l2.828-2.829c0.391-0.391,0.391-1.024,0-1.414c-0.391-0.391-1.023-0.391-1.414,0l-2.828,2.829
        l-1.808-1.808l1.414-1.414l0,0l5.657-5.657l0,0l1.414-1.414L41.935,33.45H24.964L24.328,32.814z M19.692,22.521l-6.748-6.748
        l2.829-2.829l6.748,6.748L19.692,22.521z M18.602,10.116l6.748,6.748l-1.414,1.414l-6.748-6.748L18.602,10.116z M5.253,8.082
        l2.829-2.829l6.277,6.277l-2.829,2.829L5.253,8.082z M11.53,17.187l6.748,6.748l-1.414,1.414l-6.748-6.748L11.53,17.187z
         M39.855,48.341L26.964,35.45h16.971l4.406,4.406c1.147,1.147,1.147,3.014,0,4.161l-0.04,0.04L48.3,44.057L44.057,48.3
        c-0.001,0.001-0.001,0.002-0.001,0.002l-0.039,0.039C42.869,49.488,41.003,49.488,39.855,48.341z M46.452,48.733l2.281-2.281
        l1.886,3.772l-0.395,0.395L46.452,48.733z"/>
    <circle cx="36.45" cy="39.45" r="1"/>
    <circle cx="41.45" cy="45.45" r="1"/>
    <circle cx="43.45" cy="40.45" r="1"/>
</g>
</svg>
