<?xml version="1.0" encoding="iso-8859-1"?>
<!DOCTYPE svg PUBLIC "-//W3C//DTD SVG 1.1//EN" "http://www.w3.org/Graphics/SVG/1.1/DTD/svg11.dtd">
<svg version="1.1" id="Layer_1" xmlns="http://www.w3.org/2000/svg" xmlns:xlink="http://www.w3.org/1999/xlink" x="0px" y="0px"
     viewBox="0 0 511.999 511.999" xml:space="preserve">
<g>
    <rect x="48.004" y="239.945" width="399.986" height="15.999"/>
    <path d="M128.002,171.948c0-6.616,5.384-12,12-12s12,5.384,12,12v4h15.999v-4
        c0-15.438-12.56-27.999-27.999-27.999s-27.999,12.56-27.999,27.999v59.998h15.999V171.948z"/>
    <rect x="136.003" y="207.948" width="15.999" height="15.999"/>
    <rect x="88.001" y="207.948" width="15.999" height="15.999"/>
    <path d="M511.988,439.733l-167.991,0.104v-26.018c50.117-10.016,87.998-54.351,87.998-107.371v-42.502
        h-15.999v42.502c0,51.553-41.942,93.496-93.495,93.496H173.498c-51.553,0-93.495-41.943-93.495-93.496v-42.502h-16v42.502
        c0,53.02,37.881,97.353,87.998,107.371v26.136L0,440.049l0.01,15.999l511.989-0.316L511.988,439.733z M327.998,439.846
        l-159.998,0.099v-24.141c1.821,0.091,3.653,0.138,5.498,0.138h149.002c1.843,0,3.676-0.047,5.498-0.138V439.846z"/>
    <polygon points="479.994,71.95 495.994,71.95 495.994,55.951 463.995,55.951 463.995,79.951 455.995,79.951
        455.995,95.949 479.994,95.949     "/>
    <polygon points="280,95.949 303.999,95.949 303.999,79.951 295.999,79.951 295.999,55.951 263.999,55.951
        263.999,71.95 280,71.95     "/>
    <polygon points="327.997,79.95 431.995,79.95 431.995,175.948 447.995,175.948 447.995,63.951
        311.999,63.951 311.999,175.948 327.997,175.948     "/>
    <rect x="336.001" y="159.946" width="16" height="15.999"/>
    <rect x="359.997" y="159.946" width="16" height="15.999"/>
    <rect x="383.993" y="159.946" width="16" height="15.999"/>
    <rect x="407.999" y="159.946" width="15.999" height="15.999"/>
    <rect x="96.003" y="263.941" width="303.993" height="15.999"/>
</g>
</svg>
