<?xml version="1.0" encoding="utf-8"?>
<!DOCTYPE svg PUBLIC "-//W3C//DTD SVG 1.1//EN" "http://www.w3.org/Graphics/SVG/1.1/DTD/svg11.dtd">
<svg version="1.1"  xmlns="http://www.w3.org/2000/svg" xmlns:xlink="http://www.w3.org/1999/xlink" x="0px" y="0px"
     viewBox="0 0 512 512" xml:space="preserve">
<g>
    <path d="M263.723,4.394C262.103,1.67,259.169,0,256,0c-3.169,0-6.103,1.67-7.723,4.394
        C241.991,14.975,94.316,264.501,94.316,350.316C94.316,439.468,166.848,512,256,512s161.684-72.532,161.684-161.684
        C417.684,264.501,270.009,14.975,263.723,4.394z M256,494.035c-79.247,0-143.719-64.472-143.719-143.719
        c0-70.199,112.842-270.127,143.723-323.52c13.085,22.606,40.875,71.482,68.388,125.393
        c49.28,96.556,75.328,165.068,75.328,198.127C399.719,429.563,335.247,494.035,256,494.035z"/>
</g>
</svg>
